<?xml version="1.0" encoding="UTF-8"?>
<svg version="1.1" xmlns="http://www.w3.org/2000/svg" width="600" height="300">
<path d="M0 0 C99 0 198 0 300 0 C300 99 300 198 300 300 C201 300 102 300 0 300 C0 201 0 102 0 0 Z " fill="#FDFDFC" transform="translate(150,0)"/>
<path d="M0 0 C0.99 0.33 1.98 0.66 3 1 C3.73046875 2.84765625 3.73046875 2.84765625 4.1875 5.0625 C4.34605469 5.79597656 4.50460937 6.52945313 4.66796875 7.28515625 C4.77753906 7.85105469 4.88710938 8.41695312 5 9 C6.32 9.33 7.64 9.66 9 10 C9 11.32 9 12.64 9 14 C8.01 14.33 7.02 14.66 6 15 C6.38039003 20.7058504 6.59981886 23.13317415 11 27 C11.71727778 28.64551962 12.38325228 30.31422289 13 32 C13.53625 32.763125 14.0725 33.52625 14.625 34.3125 C16.2424654 37.47390964 16.1830787 39.46648622 15.91015625 42.9375 C15.89020217 45.12015442 15.89020217 45.12015442 16.98828125 47.4453125 C18.06423831 50.16220794 18.13402523 51.97790056 18.125 54.875 C18.71701567 63.24291384 23.51226363 71.56559233 28.640625 78.0859375 C34.0141863 85.65215887 34.92338703 97.99852091 36.75 106.9375 C36.97284668 108.01539795 37.19569336 109.0932959 37.42529297 110.20385742 C38.48786703 115.56472305 39.27991855 120.53381275 39 126 C38.01 126 37.02 126 36 126 C37.89796569 143.34614519 39.88611299 160.67881438 42 178 C42.66 178 43.32 178 44 178 C43.97172119 177.41041504 43.94344238 176.82083008 43.91430664 176.21337891 C43.68190928 167.10646677 45.06940892 158.3468269 46.4375 149.375 C46.89723257 146.29987859 47.35288065 143.22415673 47.80859375 140.1484375 C47.97081924 139.06209015 47.97081924 139.06209015 48.13632202 137.95379639 C48.87417529 132.97716098 49.5017056 128.00585412 50 123 C54.62 123 59.24 123 64 123 C63.731875 124.52625 63.46375 126.0525 63.1875 127.625 C62.23160764 133.34043971 61.44544593 139.06784687 60.6875 144.8125 C59.27349503 155.45342334 57.57807981 166.04404602 55.84326172 176.63623047 C54.47535325 185.00028037 53.15898205 193.36807071 51.98828125 201.76220703 C51.29066492 206.60955049 50.25454269 211.26476867 49 216 C44.71 216 40.42 216 36 216 C32.16197878 193.51255621 28.44699819 171.02430327 25.31724548 148.42622375 C25.05116878 146.50832509 24.78222171 144.59082533 24.51318359 142.67333984 C24.16412565 140.17480236 23.82362291 137.67505798 23.49072266 135.17431641 C23.32491699 133.9888623 23.15911133 132.8034082 22.98828125 131.58203125 C22.77425659 130.00192261 22.77425659 130.00192261 22.5559082 128.38989258 C22.3724585 127.60122803 22.18900879 126.81256348 22 126 C21.34 125.67 20.68 125.34 20 125 C18.68254143 121.12081644 18 118.11624135 18 114 C14.70077803 116.19948132 14.57190099 116.50324145 13.8125 120.125 C13.544375 121.40375 13.27625 122.6825 13 124 C13.66 124 14.32 124 15 124 C15 154.36 15 184.72 15 216 C10.71 216 6.42 216 2 216 C2 185.31 2 154.62 2 123 C4.64 123 7.28 123 10 123 C10.00257813 122.43152344 10.00515625 121.86304688 10.0078125 121.27734375 C10.33441726 114.75613543 12.30938074 111.46110884 17 107 C18.485 107.495 18.485 107.495 20 108 C20.495 111.465 20.495 111.465 21 115 C21.53109375 114.7834375 22.0621875 114.566875 22.609375 114.34375 C23.31578125 114.0653125 24.0221875 113.786875 24.75 113.5 C25.44609375 113.2215625 26.1421875 112.943125 26.859375 112.65625 C29 112 29 112 33 112 C32.18921031 108.084107 31.37113389 104.16981376 30.54638672 100.25683594 C30.26705337 98.92652299 29.98968619 97.59579556 29.71435547 96.26464844 C29.31739871 94.34721832 28.91269231 92.43139776 28.5078125 90.515625 C28.26691895 89.36352539 28.02602539 88.21142578 27.77783203 87.02441406 C26.74554119 83.01059768 26.03462168 80.73512593 22.625 78.3125 C20.36511209 77.18255605 18.46925087 76.45726868 16 76 C15.731875 76.78375 15.46375 77.5675 15.1875 78.375 C14 81 14 81 11 83 C10.19663887 85.87759068 10.19663887 85.87759068 9.8125 89.125 C9.57466797 90.76855469 9.57466797 90.76855469 9.33203125 92.4453125 C9.22246094 93.28835937 9.11289062 94.13140625 9 95 C12.465 94.505 12.465 94.505 16 94 C16.66 91.03 17.32 88.06 18 85 C19.32 85 20.64 85 22 85 C22.30855036 89.47398024 22.27160759 92.27571308 20.6875 96.5 C17.48746376 99.47677789 16.48761195 99.36409238 12.25 99.375 C10.49818649 99.27869612 8.74690364 99.16264275 7 99 C6.89300781 99.57492188 6.78601563 100.14984375 6.67578125 100.7421875 C5.90284078 103.32461289 4.80292368 104.97382821 3.1875 107.125 C2.68605469 107.80820313 2.18460937 108.49140625 1.66796875 109.1953125 C-0.14601741 111.15798605 -1.49983163 112.07913646 -4 113 C-8.91137225 112.92204171 -10.99637136 112.82520577 -14.8125 109.6875 C-15.534375 108.800625 -16.25625 107.91375 -17 107 C-17.598125 106.319375 -18.19625 105.63875 -18.8125 104.9375 C-20 103 -20 103 -20 99 C-20.60328125 99.05800781 -21.2065625 99.11601562 -21.828125 99.17578125 C-24.3003804 99.31534405 -26.54639818 99.35111888 -29 99 C-31.36876426 96.74967395 -32.55847389 94.88305222 -34 92 C-34.04022391 89.6670134 -34.04320247 87.33293334 -34 85 C-32.68 85 -31.36 85 -30 85 C-29.34 87.97 -28.68 90.94 -28 94 C-26.02 94.33 -24.04 94.66 -22 95 C-22.144375 94.40832031 -22.28875 93.81664063 -22.4375 93.20703125 C-23.40822694 89.07470059 -24.27593702 85.2770238 -24 81 C-24.66 81 -25.32 81 -26 81 C-26.33 79.35 -26.66 77.7 -27 76 C-32.32847883 76.41791991 -35.18721742 77.21831679 -39 81 C-40.36218475 84.1437932 -40.36218475 84.1437932 -41.125 87.75 C-41.28258789 88.39525635 -41.44017578 89.0405127 -41.60253906 89.70532227 C-43.35519347 97.07620775 -44.70553679 104.53722344 -46 112 C-45.24332031 112.14308594 -44.48664063 112.28617187 -43.70703125 112.43359375 C-40.7077106 113.06115723 -37.89104756 113.99149504 -35 115 C-34.34 112.69 -33.68 110.38 -33 108 C-31.68 108 -30.36 108 -29 108 C-25.54913292 111.93367187 -22.60305263 116.78081506 -22.625 122.125 C-22.74875 123.07375 -22.8725 124.0225 -23 125 C-23.99 125 -24.98 125 -26 125 C-27.485 119.555 -27.485 119.555 -29 114 C-29.66 114 -30.32 114 -31 114 C-31.92347857 119.570449 -32.20687526 125.01148101 -32.31640625 130.65234375 C-32.33718735 131.55247696 -32.35796844 132.45261017 -32.37937927 133.38002014 C-32.44433837 136.23244187 -32.50350828 139.08494925 -32.5625 141.9375 C-32.60573633 143.88086794 -32.64935219 145.82422748 -32.69335938 147.76757812 C-32.79996415 152.51163279 -32.90137995 157.25577291 -33 162 C-29.37 162 -25.74 162 -22 162 C-22 149.46 -22 136.92 -22 124 C-17.71 124 -13.42 124 -9 124 C-9 154.36 -9 184.72 -9 216 C-13.29 216 -17.58 216 -22 216 C-22 202.8 -22 189.6 -22 176 C-25.63 176 -29.26 176 -33 176 C-33 189.2 -33 202.4 -33 216 C-37.29 216 -41.58 216 -46 216 C-46 185.64 -46 155.28 -46 124 C-41.545 123.505 -41.545 123.505 -37 123 C-37 121.68 -37 120.36 -37 119 C-40.63 117.68 -44.26 116.36 -48 115 C-48.33 118.3 -48.66 121.6 -49 125 C-49.99 125 -50.98 125 -52 125 C-51.53309205 118.01248098 -50.28520968 111.35614375 -48.7578125 104.52734375 C-48.05481399 101.25513933 -47.46782131 97.99148595 -46.9375 94.6875 C-46.77765625 93.72070312 -46.6178125 92.75390625 -46.453125 91.7578125 C-46.16158359 89.98343115 -45.87955128 88.20744742 -45.609375 86.4296875 C-44.68071359 81.21886515 -43.40355825 78.32951965 -39 75 C-38.01 75 -37.02 75 -36 75 C-36.33 74.46375 -36.66 73.9275 -37 73.375 C-39.55728414 67.30145017 -37.17270602 61.81974827 -35 56 C-35.99 56 -36.98 56 -38 56 C-37.67 54.68 -37.34 53.36 -37 52 C-34.03 51.505 -34.03 51.505 -31 51 C-30.89042969 49.87980469 -30.78085937 48.75960937 -30.66796875 47.60546875 C-30.50850107 46.13273778 -30.34830683 44.66008535 -30.1875 43.1875 C-30.11724609 42.44951172 -30.04699219 41.71152344 -29.97460938 40.95117188 C-29.34927233 35.4231924 -29.34927233 35.4231924 -27.5234375 33.2109375 C-27.02070313 32.81132813 -26.51796875 32.41171875 -26 32 C-24.98034573 29.67518826 -23.97940398 27.34205301 -23 25 C-22.34 24.34 -21.68 23.68 -21 23 C-20.42883482 21.07192534 -20.42883482 21.07192534 -20.0625 18.875 C-17.44416121 6.19242148 -17.44416121 6.19242148 -13 3 C-10.08203125 2.70703125 -10.08203125 2.70703125 -6.8125 2.8125 C-5.72582031 2.83957031 -4.63914062 2.86664063 -3.51953125 2.89453125 C-2.27236328 2.94673828 -2.27236328 2.94673828 -1 3 C-0.67 2.01 -0.34 1.02 0 0 Z " fill="#0E0E0E" transform="translate(308,34)"/>
<path d="M0 0 C73.59 0 147.18 0 223 0 C223 7.92 223 15.84 223 24 C149.41 24 75.82 24 0 24 C0 16.08 0 8.16 0 0 Z " fill="#000000" transform="translate(186,255)"/>
<path d="M0 0 C2 3 2 3 3 5 C5.02463255 5.65213292 5.02463255 5.65213292 7 6 C7 7.32 7 8.64 7 10 C6.01 10.33 5.02 10.66 4 11 C4.38039003 16.7058504 4.59981886 19.13317415 9 23 C9.71727778 24.64551962 10.38325228 26.31422289 11 28 C11.804375 29.1446875 11.804375 29.1446875 12.625 30.3125 C14.2424654 33.47390964 14.1830787 35.46648622 13.91015625 38.9375 C13.89020217 41.12015442 13.89020217 41.12015442 14.98828125 43.4453125 C16.06423831 46.16220794 16.13402523 47.97790056 16.125 50.875 C16.71701567 59.24291384 21.51226363 67.56559233 26.640625 74.0859375 C32.0141863 81.65215887 32.92338703 93.99852091 34.75 102.9375 C35.08427002 104.55434692 35.08427002 104.55434692 35.42529297 106.20385742 C36.48786703 111.56472305 37.27991855 116.53381275 37 122 C36.01 122 35.02 122 34 122 C35.89796569 139.34614519 37.88611299 156.67881438 40 174 C40.66 174 41.32 174 42 174 C41.97172119 173.41041504 41.94344238 172.82083008 41.91430664 172.21337891 C41.68190928 163.10646677 43.06940892 154.3468269 44.4375 145.375 C44.89723257 142.29987859 45.35288065 139.22415673 45.80859375 136.1484375 C45.97081924 135.06209015 45.97081924 135.06209015 46.13632202 133.95379639 C46.87417529 128.97716098 47.5017056 124.00585412 48 119 C52.62 119 57.24 119 62 119 C61.731875 120.52625 61.46375 122.0525 61.1875 123.625 C60.23160764 129.34043971 59.44544593 135.06784687 58.6875 140.8125 C57.27349503 151.45342334 55.57807981 162.04404602 53.84326172 172.63623047 C52.47535325 181.00028037 51.15898205 189.36807071 49.98828125 197.76220703 C49.29066492 202.60955049 48.25454269 207.26476867 47 212 C42.71 212 38.42 212 34 212 C30.16197878 189.51255621 26.44699819 167.02430327 23.31724548 144.42622375 C23.05116878 142.50832509 22.78222171 140.59082533 22.51318359 138.67333984 C22.16412565 136.17480236 21.82362291 133.67505798 21.49072266 131.17431641 C21.32491699 129.9888623 21.15911133 128.8034082 20.98828125 127.58203125 C20.77425659 126.00192261 20.77425659 126.00192261 20.5559082 124.38989258 C20.3724585 123.60122803 20.18900879 122.81256348 20 122 C19.01 121.505 19.01 121.505 18 121 C16.68254143 117.12081644 16 114.11624135 16 110 C12.70077803 112.19948132 12.57190099 112.50324145 11.8125 116.125 C11.544375 117.40375 11.27625 118.6825 11 120 C11.66 120 12.32 120 13 120 C13 150.36 13 180.72 13 212 C8.71 212 4.42 212 0 212 C0 181.31 0 150.62 0 119 C2.64 119 5.28 119 8 119 C8.00257813 118.43152344 8.00515625 117.86304688 8.0078125 117.27734375 C8.33441726 110.75613543 10.30938074 107.46110884 15 103 C15.99 103.33 16.98 103.66 18 104 C18.495 107.465 18.495 107.465 19 111 C19.53109375 110.7834375 20.0621875 110.566875 20.609375 110.34375 C21.31578125 110.0653125 22.0221875 109.786875 22.75 109.5 C23.44609375 109.2215625 24.1421875 108.943125 24.859375 108.65625 C27 108 27 108 31 108 C30.18921031 104.084107 29.37113389 100.16981376 28.54638672 96.25683594 C28.26705337 94.92652299 27.98968619 93.59579556 27.71435547 92.26464844 C27.31739871 90.34721832 26.91269231 88.43139776 26.5078125 86.515625 C26.26691895 85.36352539 26.02602539 84.21142578 25.77783203 83.02441406 C24.74554119 79.01059768 24.03462168 76.73512593 20.625 74.3125 C18.36511209 73.18255605 16.46925087 72.45726868 14 72 C13.731875 72.78375 13.46375 73.5675 13.1875 74.375 C12 77 12 77 9 79 C8.19663887 81.87759068 8.19663887 81.87759068 7.8125 85.125 C7.57466797 86.76855469 7.57466797 86.76855469 7.33203125 88.4453125 C7.16767578 89.70988281 7.16767578 89.70988281 7 91 C10.465 90.505 10.465 90.505 14 90 C14.66 87.03 15.32 84.06 16 81 C17.32 81 18.64 81 20 81 C20.3015844 85.37297381 20.24961074 88.27744259 18.8125 92.4375 C14.82593463 96.06970401 11.24601814 95.9895151 5.99609375 96.3828125 C3 96 3 96 1.09765625 93.9921875 C0.55431641 93.00605469 0.55431641 93.00605469 0 92 C0.99 92 1.98 92 3 92 C3.33 88.37 3.66 84.74 4 81 C2.948125 81.639375 1.89625 82.27875 0.8125 82.9375 C-2.10828412 84.61754452 -4.6171743 85.58996052 -8 86 C-7.875 84.25 -7.875 84.25 -7 82 C-4.125 79.875 -4.125 79.875 -1 78 C0.485 77.01 0.485 77.01 2 76 C3.9959722 75.32136945 5.99568551 74.65358081 8 74 C9.20561184 73.01732141 9.20561184 73.01732141 9.09765625 71.15234375 C9.08605469 70.42144531 9.07445312 69.69054687 9.0625 68.9375 C9.041875 67.638125 9.02125 66.33875 9 65 C10.32 65.33 11.64 65.66 13 66 C13 66.66 13 67.32 13 68 C14.65 68.33 16.3 68.66 18 69 C17.59007812 68.29617187 17.18015625 67.59234375 16.7578125 66.8671875 C12.42430875 58.92588637 10.92519524 51.92869142 10 43 C9.72736328 41.64068359 9.72736328 41.64068359 9.44921875 40.25390625 C9 38 9 38 9.125 35.375 C9.27244343 32.95473385 9.27244343 32.95473385 7.61328125 31.69921875 C4.91933483 28.86176913 4.2890268 25.17591852 3.16015625 21.49609375 C2.21154954 18.97473542 2.21154954 18.97473542 0.38671875 17.69921875 C-3.11729779 16.67267381 -6.62511516 16.52870536 -10.25 16.375 C-10.99507813 16.33632813 -11.74015625 16.29765625 -12.5078125 16.2578125 C-14.3381524 16.16394892 -16.16904143 16.08090282 -18 16 C-17.67 14.35 -17.34 12.7 -17 11 C-14.69 10.34 -12.38 9.68 -10 9 C-11.65 8.67 -13.3 8.34 -15 8 C-14.625 5.5625 -14.625 5.5625 -14 3 C-9.91738804 0.95869402 -5.29663347 1.98902742 -1 3 C-0.67 2.01 -0.34 1.02 0 0 Z " fill="#030304" transform="translate(310,38)"/>
<path d="M0 0 C0.66 0.33 1.32 0.66 2 1 C1.67 4.96 1.34 8.92 1 13 C2.65 13.33 4.3 13.66 6 14 C8.00744615 14.64389782 10.00945124 15.30562253 12 16 C12.66 13.69 13.32 11.38 14 9 C15.32 9 16.64 9 18 9 C21.45086708 12.93367187 24.39694737 17.78081506 24.375 23.125 C24.25125 24.07375 24.1275 25.0225 24 26 C23.01 26 22.02 26 21 26 C20.01 22.37 19.02 18.74 18 15 C17.34 15 16.68 15 16 15 C15.07652143 20.570449 14.79312474 26.01148101 14.68359375 31.65234375 C14.66281265 32.55247696 14.64203156 33.45261017 14.62062073 34.38002014 C14.55566163 37.23244187 14.49649172 40.08494925 14.4375 42.9375 C14.39426367 44.88086794 14.35064781 46.82422748 14.30664062 48.76757812 C14.20003585 53.51163279 14.09862005 58.25577291 14 63 C17.63 63 21.26 63 25 63 C25 50.46 25 37.92 25 25 C29.29 25 33.58 25 38 25 C38 55.36 38 85.72 38 117 C33.71 117 29.42 117 25 117 C25 103.8 25 90.6 25 77 C21.37 77 17.74 77 14 77 C14 90.2 14 103.4 14 117 C9.71 117 5.42 117 1 117 C1 86.64 1 56.28 1 25 C3.97 24.67 6.94 24.34 10 24 C10 22.68 10 21.36 10 20 C6.37 18.68 2.74 17.36 -1 16 C-1.33 19.3 -1.66 22.6 -2 26 C-2.99 26 -3.98 26 -5 26 C-4.56901343 17.03547936 -2.30110566 8.62647053 0 0 Z " fill="#010103" transform="translate(261,133)"/>
<path d="M0 0 C37.29 0 74.58 0 113 0 C113 0.66 113 1.32 113 2 C115.31 2 117.62 2 120 2 C120.33 2.99 120.66 3.98 121 5 C121.66 5 122.32 5 123 5 C123 5.99 123 6.98 123 8 C123.99 7.34 124.98 6.68 126 6 C128.33199388 5.92094936 130.66832622 5.91201231 133 6 C133 7.32 133 8.64 133 10 C131.02 9.34 129.04 8.68 127 8 C128.37691962 10.75383923 130.36720042 11.51483101 133 13 C132.67 14.65 132.34 16.3 132 18 C129.69 18 127.38 18 125 18 C124.67 18.66 124.34 19.32 124 20 C123.67 19.67 123.34 19.34 123 19 C121.48530552 18.76807135 119.96245438 18.58784762 118.4375 18.4375 C117.19806641 18.31181641 117.19806641 18.31181641 115.93359375 18.18359375 C115.29550781 18.12300781 114.65742188 18.06242187 114 18 C114 17.34 114 16.68 114 16 C113.01 16.66 112.02 17.32 111 18 C108.66800612 18.07905064 106.33167378 18.08798769 104 18 C103.505 17.01 103.505 17.01 103 16 C102.34 16.66 101.68 17.32 101 18 C98.3984375 18.1953125 98.3984375 18.1953125 95.375 18.125 C94.37210937 18.10695313 93.36921875 18.08890625 92.3359375 18.0703125 C91.56507813 18.04710937 90.79421875 18.02390625 90 18 C90 17.01 90 16.02 90 15 C88.68 15 87.36 15 86 15 C85.67 15.99 85.34 16.98 85 18 C81.04 18 77.08 18 73 18 C72.505 14.535 72.505 14.535 72 11 C71.01 11 70.02 11 69 11 C69 10.01 69 9.02 69 8 C67.68 8 66.36 8 65 8 C65.495 11.465 65.495 11.465 66 15 C66.99 15.33 67.98 15.66 69 16 C69 15.34 69 14.68 69 14 C69.66 14 70.32 14 71 14 C70.42655063 16.86724686 70.1385485 17.8614515 68 20 C67.01 21.485 67.01 21.485 66 23 C63.65370178 23.38095093 63.65370178 23.38095093 60.67993164 23.38818359 C59.56860367 23.39764008 58.4572757 23.40709656 57.31227112 23.4168396 C56.10707321 23.41076691 54.90187531 23.40469421 53.66015625 23.3984375 C51.81060585 23.40274277 51.81060585 23.40274277 49.9236908 23.40713501 C46.64165529 23.40970438 43.36004316 23.39760162 40.07806396 23.38085938 C38.06598318 23.37501013 36.05429544 23.38083175 34.04223633 23.39111328 C30.18552323 23.40961298 26.32939337 23.40740801 22.47265625 23.3984375 C21.26948257 23.40451019 20.0663089 23.41058289 18.82667542 23.4168396 C17.71219528 23.40738312 16.59771515 23.39792664 15.44946289 23.38818359 C14.46732315 23.38579681 13.48518341 23.38341003 12.47328186 23.38095093 C9.6301119 22.94302743 8.74877886 22.22591104 7 20 C7.66 20 8.32 20 9 20 C9 19.34 9 18.68 9 18 C8.34 18 7.68 18 7 18 C7 16.35 7 14.7 7 13 C5.68 13 4.36 13 3 13 C3 14.65 3 16.3 3 18 C-1.29 18 -5.58 18 -10 18 C-10 16.68 -10 15.36 -10 14 C-7.61435923 14.57584432 -5.33317216 15.22227595 -3 16 C-4.37691962 13.24616077 -6.36720042 12.48516899 -9 11 C-8.67 9.35 -8.34 7.7 -8 6 C-7.05125 5.7525 -6.1025 5.505 -5.125 5.25 C-1.55882089 4.22491484 -1.55882089 4.22491484 0 0 Z " fill="#040403" transform="translate(227,255)"/>
<path d="M0 0 C5.7049003 5.13441027 6.56507225 10.86957034 7.5 18.25 C7.5 19.57 7.5 20.89 7.5 22.25 C3.21 22.25 -1.08 22.25 -5.5 22.25 C-5.98828125 19.97135417 -6.4765625 17.69270833 -6.96484375 15.4140625 C-7.42330693 13.220537 -7.42330693 13.220537 -8.5 11.25 C-11.52934491 10.59227572 -11.52934491 10.59227572 -14.5 10.25 C-16.46327375 16.13982124 -16.54741215 20.92389434 -13.9609375 26.66796875 C-10.49060163 33.03622296 -6.38283169 38.99362663 -2.16796875 44.88671875 C4.79637557 54.75423237 9.04344334 63.92127579 7.5 76.25 C6.00669208 81.59973714 4.18164053 86.94531257 -0.5 90.25 C-6.29203191 93.07538142 -13.39275737 93.21641003 -19.625 91.75 C-23.82549622 90.15670833 -26.22653295 88.06617684 -28.5 84.25 C-31.10875987 77.82930221 -31.83338558 72.13996865 -31.5 65.25 C-27.21 65.25 -22.92 65.25 -18.5 65.25 C-17.75130208 68.30989583 -17.00260417 71.36979167 -16.25390625 74.4296875 C-15.6213522 77.17484721 -15.6213522 77.17484721 -14.5 79.25 C-12.08380177 79.50030977 -12.08380177 79.50030977 -9.5 79.25 C-6.31708018 74.47562027 -6.66322683 69.82409527 -7.5 64.25 C-9.31088316 59.88291843 -11.82450847 56.13515525 -14.5 52.25 C-31.35614818 27.70707427 -31.35614818 27.70707427 -29.5 14.25 C-28.32458077 8.85146739 -26.64539613 4.05928293 -22.5 0.25 C-15.45067724 -4.02636641 -7.23238228 -3.61619114 0 0 Z " fill="#040405" transform="translate(246.5,158.75)"/>
<path d="M0 0 C0.99 0.33 1.98 0.66 3 1 C3 2.32 3 3.64 3 5 C3.66 5 4.32 5 5 5 C5 35.36 5 65.72 5 97 C0.71 97 -3.58 97 -8 97 C-8 66.31 -8 35.62 -8 4 C-5.36 4 -2.72 4 0 4 C0 2.68 0 1.36 0 0 Z " fill="#010001" transform="translate(318,153)"/>
<path d="M0 0 C2 3 2 3 3 5 C5.02463255 5.65213292 5.02463255 5.65213292 7 6 C7 7.32 7 8.64 7 10 C6.01 10.33 5.02 10.66 4 11 C4.38039003 16.7058504 4.59981886 19.13317415 9 23 C9.71727778 24.64551962 10.38325228 26.31422289 11 28 C11.804375 29.1446875 11.804375 29.1446875 12.625 30.3125 C14.2424654 33.47390964 14.1830787 35.46648622 13.91015625 38.9375 C13.89020217 41.12015442 13.89020217 41.12015442 14.98828125 43.4453125 C16.06423831 46.16220794 16.13402523 47.97790056 16.125 50.875 C16.71701567 59.24291384 21.51226363 67.56559233 26.640625 74.0859375 C32.0141863 81.65215887 32.92338703 93.99852091 34.75 102.9375 C35.08427002 104.55434692 35.08427002 104.55434692 35.42529297 106.20385742 C36.48786703 111.56472305 37.27991855 116.53381275 37 122 C36.01 122 35.02 122 34 122 C33.505 123.485 33.505 123.485 33 125 C33 123.35 33 121.7 33 120 C29.37 120 25.74 120 22 120 C20.875 116.6875 20.875 116.6875 20 113 C22.24887569 109.62668646 23.2387963 109.1641821 27 108 C28.32 108 29.64 108 31 108 C30.18921031 104.084107 29.37113389 100.16981376 28.54638672 96.25683594 C28.26705337 94.92652299 27.98968619 93.59579556 27.71435547 92.26464844 C27.31739871 90.34721832 26.91269231 88.43139776 26.5078125 86.515625 C26.26691895 85.36352539 26.02602539 84.21142578 25.77783203 83.02441406 C24.74554119 79.01059768 24.03462168 76.73512593 20.625 74.3125 C18.36511209 73.18255605 16.46925087 72.45726868 14 72 C13.731875 72.78375 13.46375 73.5675 13.1875 74.375 C12 77 12 77 9 79 C8.19663887 81.87759068 8.19663887 81.87759068 7.8125 85.125 C7.57466797 86.76855469 7.57466797 86.76855469 7.33203125 88.4453125 C7.16767578 89.70988281 7.16767578 89.70988281 7 91 C10.465 90.505 10.465 90.505 14 90 C14.66 87.03 15.32 84.06 16 81 C17.32 81 18.64 81 20 81 C20.3015844 85.37297381 20.24961074 88.27744259 18.8125 92.4375 C14.82593463 96.06970401 11.24601814 95.9895151 5.99609375 96.3828125 C3 96 3 96 1.09765625 93.9921875 C0.55431641 93.00605469 0.55431641 93.00605469 0 92 C0.99 92 1.98 92 3 92 C3.33 88.37 3.66 84.74 4 81 C2.948125 81.639375 1.89625 82.27875 0.8125 82.9375 C-2.10828412 84.61754452 -4.6171743 85.58996052 -8 86 C-7.875 84.25 -7.875 84.25 -7 82 C-4.125 79.875 -4.125 79.875 -1 78 C0.485 77.01 0.485 77.01 2 76 C3.9959722 75.32136945 5.99568551 74.65358081 8 74 C9.20561184 73.01732141 9.20561184 73.01732141 9.09765625 71.15234375 C9.08605469 70.42144531 9.07445312 69.69054687 9.0625 68.9375 C9.041875 67.638125 9.02125 66.33875 9 65 C10.32 65.33 11.64 65.66 13 66 C13 66.66 13 67.32 13 68 C14.65 68.33 16.3 68.66 18 69 C17.59007812 68.29617187 17.18015625 67.59234375 16.7578125 66.8671875 C12.42430875 58.92588637 10.92519524 51.92869142 10 43 C9.72736328 41.64068359 9.72736328 41.64068359 9.44921875 40.25390625 C9 38 9 38 9.125 35.375 C9.27244343 32.95473385 9.27244343 32.95473385 7.61328125 31.69921875 C4.91933483 28.86176913 4.2890268 25.17591852 3.16015625 21.49609375 C2.21154954 18.97473542 2.21154954 18.97473542 0.38671875 17.69921875 C-3.11729779 16.67267381 -6.62511516 16.52870536 -10.25 16.375 C-10.99507813 16.33632813 -11.74015625 16.29765625 -12.5078125 16.2578125 C-14.3381524 16.16394892 -16.16904143 16.08090282 -18 16 C-17.67 14.35 -17.34 12.7 -17 11 C-14.69 10.34 -12.38 9.68 -10 9 C-11.65 8.67 -13.3 8.34 -15 8 C-14.625 5.5625 -14.625 5.5625 -14 3 C-9.91738804 0.95869402 -5.29663347 1.98902742 -1 3 C-0.67 2.01 -0.34 1.02 0 0 Z " fill="#101010" transform="translate(310,38)"/>
<path d="M0 0 C0.79857422 -0.01998047 1.59714844 -0.03996094 2.41992188 -0.06054688 C6.39957531 -0.05724973 8.55687319 0.12998818 12.0234375 2.23828125 C14.60940404 5.02736011 15.69250959 7.91466753 17.0625 11.4375 C17.7225 12.0975 18.3825 12.7575 19.0625 13.4375 C19.0625 15.36728634 19.05613764 17.29748313 19.00390625 19.2265625 C19.08082927 22.12912436 19.78057578 24.66500651 20.5703125 27.4453125 C21.0625 29.4375 21.0625 29.4375 21.375 33.3125 C21.84115532 37.83062077 23.84951235 41.39333563 26.00390625 45.3359375 C27.0625 47.4375 27.0625 47.4375 27.0625 49.4375 C24.625 49.0625 24.625 49.0625 22.0625 48.4375 C21.7325 47.7775 21.4025 47.1175 21.0625 46.4375 C20.0725 46.1075 19.0825 45.7775 18.0625 45.4375 C18.4028125 47.3246875 18.4028125 47.3246875 18.75 49.25 C19.21175104 53.1576543 19.21175104 53.1576543 18.0625 55.3125 C15.22505693 56.90856173 12.18466447 57.54545301 9.0625 58.4375 C7.33223898 59.91640069 7.33223898 59.91640069 6.0625 61.4375 C1.16363398 63.07045534 -3.83117629 63.08198746 -8.9375 62.4375 C-11.4375 60.125 -11.4375 60.125 -12.9375 57.4375 C-13.659375 56.921875 -14.38125 56.40625 -15.125 55.875 C-17.31189693 54.1405645 -17.39872982 53.09869817 -17.9375 50.4375 C-18.50339844 50.30472656 -19.06929688 50.17195313 -19.65234375 50.03515625 C-20.38582031 49.85855469 -21.11929687 49.68195313 -21.875 49.5 C-22.60589844 49.32597656 -23.33679688 49.15195313 -24.08984375 48.97265625 C-25.9375 48.4375 -25.9375 48.4375 -26.9375 47.4375 C-27.21145869 43.32811969 -26.74110751 41.04471503 -24.9375 37.4375 C-24.77025263 34.27054044 -24.77025263 34.27054044 -24.9375 31.4375 C-23.6175 31.4375 -22.2975 31.4375 -20.9375 31.4375 C-21.6875 38.0625 -21.6875 38.0625 -23.9375 41.4375 C-23.6253236 44.08382287 -23.6253236 44.08382287 -22.9375 46.4375 C-20.2975 46.7675 -17.6575 47.0975 -14.9375 47.4375 C-14.73125 48.13875 -14.525 48.84 -14.3125 49.5625 C-12.48686746 53.37973168 -10.5801589 56.18608249 -6.9375 58.4375 C-1.96285244 59.52749691 2.448012 59.11430094 6.875 56.5625 C8.4528125 55.510625 8.4528125 55.510625 10.0625 54.4375 C11.71422812 53.73463697 13.37551918 53.05094757 15.0625 52.4375 C13.82455327 48.82903224 13.82455327 48.82903224 11.4375 45.9375 C10.0625 44.4375 10.0625 44.4375 9.6875 42.1875 C10.1758337 38.6063862 11.59333918 35.72842024 13.0625 32.4375 C13.98258089 28.71987586 14.28392861 25.13749844 14.375 21.3125 C14.41238281 20.27867188 14.44976562 19.24484375 14.48828125 18.1796875 C14.33542612 15.36526853 14.33542612 15.36526853 12.34301758 13.78881836 C9.69911558 12.22217694 8.19933404 12.06347002 5.1484375 12.07421875 C4.22289062 12.07486328 3.29734375 12.07550781 2.34375 12.07617188 C1.3846875 12.09228516 0.425625 12.10839844 -0.5625 12.125 C-1.52929688 12.12177734 -2.49609375 12.11855469 -3.4921875 12.11523438 C-8.75281548 11.82963004 -8.75281548 11.82963004 -12.9375 14.4375 C-13.19304559 17.17421502 -13.31686407 19.76169331 -13.3125 22.5 C-13.31451416 23.26989258 -13.31652832 24.03978516 -13.31860352 24.83300781 C-13.22405913 30.12973121 -12.35163535 34.01919401 -9.76171875 38.69921875 C-8.9375 40.4375 -8.9375 40.4375 -9.1875 43.5 C-9.435 44.139375 -9.6825 44.77875 -9.9375 45.4375 C-10.824375 45.2725 -11.71125 45.1075 -12.625 44.9375 C-15.47346892 44.50754243 -18.06754802 44.35308965 -20.9375 44.4375 C-20.47665076 41.74921277 -19.92271323 39.40183779 -18.875 36.875 C-17.69818061 34.25053173 -17.69818061 34.25053173 -17.9375 30.4375 C-18.9275 29.7775 -19.9175 29.1175 -20.9375 28.4375 C-20.6075 27.4475 -20.2775 26.4575 -19.9375 25.4375 C-19.09265375 22.57084926 -18.8730194 20.16878355 -19 17.1875 C-18.9375 13.4375 -18.9375 13.4375 -17.5625 11.4375 C-15.9375 10.4375 -15.9375 10.4375 -13.9375 10.4375 C-13.855 9.344375 -13.7725 8.25125 -13.6875 7.125 C-12.9375 3.4375 -12.9375 3.4375 -11.44921875 1.734375 C-7.68165251 -0.21093136 -4.17961211 -0.0369283 0 0 Z " fill="#EBEBEB" transform="translate(300.9375,57.5625)"/>
<path d="M0 0 C0.66 0 1.32 0 2 0 C2.50615298 1.26839526 3.00469099 2.53983102 3.5 3.8125 C3.91765625 4.87404297 3.91765625 4.87404297 4.34375 5.95703125 C5 8 5 8 5 11 C5.99 11 6.98 11 8 11 C8 10.34 8 9.68 8 9 C12.95 9 17.9 9 23 9 C23 40.02 23 71.04 23 103 C18.38 103 13.76 103 9 103 C9 102.67 9 102.34 9 102 C13.29 102 17.58 102 22 102 C22 71.64 22 41.28 22 10 C17.71 10 13.42 10 9 10 C9 22.54 9 35.08 9 48 C5.37 48 1.74 48 -2 48 C-2.049623 42.28915661 -2.08582503 36.57844015 -2.10986328 30.86743164 C-2.1198898 28.92665418 -2.13351443 26.9858917 -2.15087891 25.04516602 C-2.17527489 22.24752084 -2.18651681 19.45007629 -2.1953125 16.65234375 C-2.20563507 15.7916478 -2.21595764 14.93095184 -2.22659302 14.04417419 C-2.22752775 8.96820807 -1.64042491 4.81058863 0 0 Z " fill="#DEE1E1" transform="translate(277,148)"/>
<path d="M0 0 C0.33 0 0.66 0 1 0 C1 3.96 1 7.92 1 12 C3.97 12 6.94 12 10 12 C10.33 11.34 10.66 10.68 11 10 C11 10.66 11 11.32 11 12 C11.4125 11.505 11.825 11.01 12.25 10.5 C14 9 14 9 18 9 C18 9.99 18 10.98 18 12 C18.515625 11.835 19.03125 11.67 19.5625 11.5 C22 11 22 11 25.5625 11.0625 C29.12405164 11.3069254 29.12405164 11.3069254 32 9 C32 9.99 32 10.98 32 12 C35.46941546 11.54177532 38.67395049 11.10868317 42 10 C42 10.66 42 11.32 42 12 C42.9590625 12.1546875 42.9590625 12.1546875 43.9375 12.3125 C44.618125 12.539375 45.29875 12.76625 46 13 C46.33 13.99 46.66 14.98 47 16 C77.69 16.495 77.69 16.495 109 17 C109 17.33 109 17.66 109 18 C36.07 18 -36.86 18 -112 18 C-112 17.67 -112 17.34 -112 17 C-77.02 16.67 -42.04 16.34 -6 16 C-5.67 14.68 -5.34 13.36 -5 12 C-4.01 11.67 -3.02 11.34 -2 11 C-1.67 10.01 -1.34 9.02 -1 8 C-1.66 8 -2.32 8 -3 8 C-3 8.66 -3 9.32 -3 10 C-4.32 9.67 -5.64 9.34 -7 9 C-7 6.69 -7 4.38 -7 2 C-5.68 2 -4.36 2 -3 2 C-3 2.99 -3 3.98 -3 5 C-2.01 5 -1.02 5 0 5 C0 3.35 0 1.7 0 0 Z " fill="#070608" transform="translate(299,261)"/>
<path d="M0 0 C0.99 0 1.98 0 3 0 C3.18172434 4.63397072 2.76939155 7.75346028 1 12 C1.33 12.99 1.66 13.98 2 15 C2.66 15 3.32 15 4 15 C2.52550907 19.86582006 -0.09442592 23.76690887 -4 27 C-7.44691178 28.44728344 -10.38192271 28.53826506 -13.92578125 27.359375 C-18.22546952 25.18651326 -20.9266608 22.41711395 -23 18 C-22.25 15.25 -22.25 15.25 -21 13 C-20.89257873 10.79837532 -20.89257873 10.79837532 -22 8.0625 C-23 5 -23 5 -23 2 C-22.34 2 -21.68 2 -21 2 C-21 2.66 -21 3.32 -21 4 C-19.52093108 4.02689216 -18.04172517 4.04634621 -16.5625 4.0625 C-15.32693359 4.07990234 -15.32693359 4.07990234 -14.06640625 4.09765625 C-12.00836062 4.23267348 -12.00836062 4.23267348 -11 3 C-13.97 2.505 -13.97 2.505 -17 2 C-17 1.67 -17 1.34 -17 1 C-14.03 1 -11.06 1 -8 1 C-8 1.99 -8 2.98 -8 4 C-3.70111387 2.48134786 -3.70111387 2.48134786 0 0 Z " fill="#191919" transform="translate(311,119)"/>
<path d="M0 0 C1.19496094 -0.00386719 1.19496094 -0.00386719 2.4140625 -0.0078125 C3.24679687 -0.00007813 4.07953125 0.00765625 4.9375 0.015625 C5.77023437 0.00789063 6.60296875 0.00015625 7.4609375 -0.0078125 C8.25757813 -0.00523438 9.05421875 -0.00265625 9.875 0 C10.60589844 0.00225586 11.33679688 0.00451172 12.08984375 0.00683594 C13.9375 0.265625 13.9375 0.265625 15.9375 2.265625 C16.81993409 10.65900969 16.82174166 18.14858715 11.9375 25.265625 C8.24600458 27.72662195 5.22148538 28.0605051 0.9375 27.265625 C-3.12587354 24.43893037 -4.80960392 21.51933596 -5.78515625 16.66015625 C-6.33783573 11.88843059 -6.56278454 7.04775665 -6.0625 2.265625 C-3.69681778 -0.10005722 -3.21017774 0.00990796 0 0 Z " fill="#E3E3E3" transform="translate(296.0625,71.734375)"/>
<path d="M0 0 C0.94617188 -0.01998047 1.89234375 -0.03996094 2.8671875 -0.06054688 C7.1519164 -0.05753794 9.93496723 0.06753231 13.7578125 2.1171875 C16.70355553 5.77779704 16.18047455 8.66534769 15.9921875 13.1953125 C15.23825895 19.85234121 13.40457483 26.33728806 10.625 32.4375 C9.635 32.9325 9.635 32.9325 8.625 33.4375 C8.955 35.7475 9.285 38.0575 9.625 40.4375 C5.93759701 43.44762489 3.70462242 45.23274402 -1 46.125 C-5.69354536 45.16890743 -6.70784664 43.31699579 -9.375 39.4375 C-8.055 37.1275 -6.735 34.8175 -5.375 32.4375 C-6.86 32.9325 -6.86 32.9325 -8.375 33.4375 C-12.01523514 25.96201713 -13.86790641 19.58274348 -13.875 11.3125 C-13.88080078 10.57845947 -13.88660156 9.84441895 -13.89257812 9.08813477 C-13.77368785 3.98476962 -13.77368785 3.98476962 -12.14013672 1.74243164 C-8.66386204 -0.8275114 -4.16243328 -0.030937 0 0 Z M-10.375 5.4375 C-11.38988553 13.88609255 -10.40111422 21.84228951 -5.6875 29 C-2.31011099 31.09945803 0.8284689 31.31304196 4.625 30.4375 C8.40212518 27.56360041 10.21635989 24.91273717 11.625 20.4375 C11.94065463 16.69338879 11.94065463 16.69338879 11.875 12.75 C11.88273437 12.07388672 11.89046875 11.39777344 11.8984375 10.70117188 C11.98772568 6.6166662 11.98772568 6.6166662 9.625 3.4375 C7.72271695 3.12846711 7.72271695 3.12846711 5.5625 3.171875 C4.76585937 3.16929688 3.96921875 3.16671875 3.1484375 3.1640625 C2.31570313 3.17179687 1.48296875 3.17953125 0.625 3.1875 C-0.20773437 3.17976563 -1.04046875 3.17203125 -1.8984375 3.1640625 C-3.09339844 3.16792969 -3.09339844 3.16792969 -4.3125 3.171875 C-5.04339844 3.17413086 -5.77429688 3.17638672 -6.52734375 3.17871094 C-8.62197364 3.28301439 -8.62197364 3.28301439 -10.375 5.4375 Z " fill="#141414" transform="translate(300.375,68.5625)"/>
<path d="M0 0 C3.43138603 2.28759068 3.81488346 3.16579944 5 7 C5.31756998 9.22298988 5.58484821 11.45351043 5.8125 13.6875 C6.57200582 19.55977669 8.04326263 23.98881685 10.9765625 29.109375 C12 31 12 31 12 33 C9.5625 32.625 9.5625 32.625 7 32 C6.505 31.01 6.505 31.01 6 30 C5.01 29.67 4.02 29.34 3 29 C3.3403125 30.8871875 3.3403125 30.8871875 3.6875 32.8125 C4.14925104 36.7201543 4.14925104 36.7201543 3 38.875 C0.16255693 40.47106173 -2.87783553 41.10795301 -6 42 C-7.73026102 43.47890069 -7.73026102 43.47890069 -9 45 C-13.89886602 46.63295534 -18.89367629 46.64448746 -24 46 C-26.5 43.6875 -26.5 43.6875 -28 41 C-28.721875 40.484375 -29.44375 39.96875 -30.1875 39.4375 C-32.37439693 37.7030645 -32.46122982 36.66119817 -33 34 C-33.56589844 33.86722656 -34.13179688 33.73445313 -34.71484375 33.59765625 C-35.44832031 33.42105469 -36.18179687 33.24445313 -36.9375 33.0625 C-37.66839844 32.88847656 -38.39929688 32.71445313 -39.15234375 32.53515625 C-41 32 -41 32 -42 31 C-42.27395869 26.89061969 -41.80360751 24.60721503 -40 21 C-39.83275263 17.83304044 -39.83275263 17.83304044 -40 15 C-38.68 15 -37.36 15 -36 15 C-36.75 21.625 -36.75 21.625 -39 25 C-38.6878236 27.64632287 -38.6878236 27.64632287 -38 30 C-35.36 30.33 -32.72 30.66 -30 31 C-29.79375 31.70125 -29.5875 32.4025 -29.375 33.125 C-27.54936746 36.94223168 -25.6426589 39.74858249 -22 42 C-17.02535244 43.08999691 -12.614488 42.67680094 -8.1875 40.125 C-6.6096875 39.073125 -6.6096875 39.073125 -5 38 C-3.34827188 37.29713697 -1.68698082 36.61344757 0 36 C-1.23794673 32.39153224 -1.23794673 32.39153224 -3.625 29.5 C-5 28 -5 28 -5.375 25.75 C-5 23 -5 23 -3.55078125 19.85546875 C-1.77356619 15.81970954 -1.24726408 11.92210678 -0.8125 7.5625 C-0.73064453 6.83095703 -0.64878906 6.09941406 -0.56445312 5.34570312 C-0.36658115 3.56485534 -0.18189293 1.78255073 0 0 Z " fill="#F0F0F0" transform="translate(316,74)"/>
<path d="M0 0 C13.53 0 27.06 0 41 0 C41 0.99 41 1.98 41 3 C39 5 39 5 36.1796875 5.1953125 C35.08914063 5.17210937 33.99859375 5.14890625 32.875 5.125 C31.77929688 5.10695313 30.68359375 5.08890625 29.5546875 5.0703125 C28.29011719 5.03550781 28.29011719 5.03550781 27 5 C26.34 6.32 25.68 7.64 25 9 C24.505 7.515 24.505 7.515 24 6 C23.01 6 22.02 6 21 6 C20.67 6.99 20.34 7.98 20 9 C19.01 8.67 18.02 8.34 17 8 C17 7.34 17 6.68 17 6 C16.01 6.33 15.02 6.66 14 7 C12.96961044 9.56042066 12.96961044 9.56042066 12.3125 12.5625 C12.06113281 13.57441406 11.80976563 14.58632813 11.55078125 15.62890625 C11.36902344 16.41136719 11.18726563 17.19382812 11 18 C10.34 17.67 9.68 17.34 9 17 C9 13.37 9 9.74 9 6 C8.34 6 7.68 6 7 6 C7 7.65 7 9.3 7 11 C5.68 11 4.36 11 3 11 C3 9.35 3 7.7 3 6 C2.34 6 1.68 6 1 6 C1 9.63 1 13.26 1 17 C-1.40545638 18.20272819 -2.94996953 18.10071472 -5.625 18.0625 C-6.85089844 18.04896484 -6.85089844 18.04896484 -8.1015625 18.03515625 C-8.72804687 18.02355469 -9.35453125 18.01195312 -10 18 C-10 16.68 -10 15.36 -10 14 C-7.61435923 14.57584432 -5.33317216 15.22227595 -3 16 C-4.37691962 13.24616077 -6.36720042 12.48516899 -9 11 C-8.67 9.35 -8.34 7.7 -8 6 C-7.05125 5.7525 -6.1025 5.505 -5.125 5.25 C-1.55882089 4.22491484 -1.55882089 4.22491484 0 0 Z " fill="#0D0905" transform="translate(227,255)"/>
<path d="M0 0 C2 3 2 3 3 5 C5.02463255 5.65213292 5.02463255 5.65213292 7 6 C7 7.32 7 8.64 7 10 C6.01 10.33 5.02 10.66 4 11 C4.33401352 17.27875205 4.33401352 17.27875205 8 22 C7.6875 24.1875 7.6875 24.1875 7 26 C6.34 26 5.68 26 5 26 C4.34895833 24.2421875 3.69791667 22.484375 3.046875 20.7265625 C1.60980589 18.3564709 0.64129389 17.89186547 -2 17 C-4.77394833 16.7047806 -7.4700511 16.49287769 -10.25 16.375 C-10.99507813 16.33632813 -11.74015625 16.29765625 -12.5078125 16.2578125 C-14.3381524 16.16394892 -16.16904143 16.08090282 -18 16 C-17.67 14.35 -17.34 12.7 -17 11 C-14.69 10.34 -12.38 9.68 -10 9 C-11.65 8.67 -13.3 8.34 -15 8 C-14.625 5.5625 -14.625 5.5625 -14 3 C-9.91738804 0.95869402 -5.29663347 1.98902742 -1 3 C-0.67 2.01 -0.34 1.02 0 0 Z " fill="#141414" transform="translate(310,38)"/>
<path d="M0 0 C1.32 0.33 2.64 0.66 4 1 C4.67864775 4.01826782 5.34069713 7.0399527 6 10.0625 C6.19078125 10.91005859 6.3815625 11.75761719 6.578125 12.63085938 C7.63919111 17.53829014 8.21796119 21.98008123 8 27 C7.01 27 6.02 27 5 27 C4.67 27.99 4.34 28.98 4 30 C4 28.35 4 26.7 4 25 C0.37 25 -3.26 25 -7 25 C-8.125 21.6875 -8.125 21.6875 -9 18 C-6.75112431 14.62668646 -5.7612037 14.1641821 -2 13 C-0.68 13 0.64 13 2 13 C1.855625 12.39671875 1.71125 11.7934375 1.5625 11.171875 C1.376875 10.37265625 1.19125 9.5734375 1 8.75 C0.814375 7.96109375 0.62875 7.1721875 0.4375 6.359375 C0 4 0 4 0 0 Z " fill="#222323" transform="translate(339,133)"/>
<path d="M0 0 C1.32 0 2.64 0 4 0 C3.25 6.625 3.25 6.625 1 10 C1.3121764 12.64632287 1.3121764 12.64632287 2 15 C4.64 15.33 7.28 15.66 10 16 C10.20625 16.70125 10.4125 17.4025 10.625 18.125 C12.45063254 21.94223168 14.3573411 24.74858249 18 27 C22.94363037 28.08320072 27.38395661 27.67251234 31.8125 25.1875 C32.864375 24.465625 33.91625 23.74375 35 23 C35.9075 22.484375 36.815 21.96875 37.75 21.4375 C39.81278738 20.11960806 41.32225254 18.76163484 43 17 C43.33 17 43.66 17 44 17 C44.35915493 21.42957746 44.35915493 21.42957746 42.9375 23.6875 C40.18490253 25.5521628 37.18159957 26.09097155 34 27 C32.26973898 28.47890069 32.26973898 28.47890069 31 30 C26.10113398 31.63295534 21.10632371 31.64448746 16 31 C13.5 28.6875 13.5 28.6875 12 26 C11.278125 25.484375 10.55625 24.96875 9.8125 24.4375 C7.62560307 22.7030645 7.53877018 21.66119817 7 19 C6.43410156 18.86722656 5.86820312 18.73445313 5.28515625 18.59765625 C4.55167969 18.42105469 3.81820313 18.24445313 3.0625 18.0625 C1.96615234 17.80146484 1.96615234 17.80146484 0.84765625 17.53515625 C-1 17 -1 17 -2 16 C-2.27395869 11.89061969 -1.80360751 9.60721503 0 6 C0.16724737 2.83304044 0.16724737 2.83304044 0 0 Z " fill="#E5E5E5" transform="translate(276,89)"/>
<path d="M0 0 C2.27650745 -0.3577614 2.27650745 -0.3577614 4 -1 C3.37240135 1.92879371 2.41377341 4.36095629 1 7 C3.38911196 10.0580633 4.52854858 10.93142525 8.4375 11.5 C12.5094861 10.92849318 14.01720365 9.7271281 17 7 C17.66 7 18.32 7 19 7 C18.34 4.69 17.68 2.38 17 0 C21 0 21 0 23.25 1.75 C25 4 25 4 25 8 C23.13671875 9.66796875 23.13671875 9.66796875 20.6875 11.1875 C19.88699219 11.69667969 19.08648437 12.20585938 18.26171875 12.73046875 C13.3995696 15.45965437 8.44870144 16.00414135 3 15 C-0.04189638 13.14046617 -2.12923627 11.03318003 -4 8 C-4.4375 4.5625 -4.4375 4.5625 -4 2 C-5.65 1.67 -7.3 1.34 -9 1 C-5.25686988 -1.49542008 -4.26097838 -0.78262868 0 0 Z " fill="#0A0A0A" transform="translate(291,102)"/>
<path d="M0 0 C2.46800047 1.15173355 4.04783565 2.04783565 6 4 C8.06874034 4.6425235 8.06874034 4.6425235 10 5 C9.12070257 8.51718971 8.28825508 10.68703734 5.8125 13.375 C2.19331262 15.46608604 0.11552843 15.67345011 -4 15 C-7.26707599 11.99085106 -8.49869716 9.38639981 -9 5 C-7.88625 4.54625 -6.7725 4.0925 -5.625 3.625 C-2.03800992 2.27534014 -2.03800992 2.27534014 0 0 Z " fill="#F1F1F1" transform="translate(301,128)"/>
<path d="M0 0 C4.56454251 0.54339792 7.9728176 1.79463821 12 4 C12 5.32 12 6.64 12 8 C8.37 8 4.74 8 1 8 C1 38.69 1 69.38 1 101 C0.67 101 0.34 101 0 101 C-0.15393269 88.71723314 -0.30211322 76.43441161 -0.4429636 64.15148735 C-0.50854742 58.44795814 -0.57610764 52.74446666 -0.64819336 47.04101562 C-0.71769514 41.53624256 -0.78199387 36.031431 -0.84269524 30.52655411 C-0.8667591 28.42701132 -0.89269337 26.32748911 -0.92053413 24.22799301 C-0.95922686 21.28597986 -0.99125144 18.34396362 -1.02172852 15.40185547 C-1.03467453 14.53510696 -1.04762054 13.66835846 -1.06095886 12.77534485 C-1.09917784 8.39074247 -0.89259984 4.31831603 0 0 Z " fill="#FDFCE8" transform="translate(260,149)"/>
<path d="M0 0 C1.4606285 2.64738916 2 3.89448334 2 7 C-1.03599119 10.27591755 -4.27642192 11.86276967 -8.625 12.6875 C-13.31854536 11.73140743 -14.33284664 9.87949579 -17 6 C-13.80148165 -2.0804674 -7.78161925 -0.60723618 0 0 Z " fill="#EAEAEA" transform="translate(308,102)"/>
<path d="M0 0 C0.66 0 1.32 0 2 0 C2.66 3.3 3.32 6.6 4 10 C3.01 10.33 2.02 10.66 1 11 C0.67 41.36 0.34 71.72 0 103 C-4.62 103 -9.24 103 -14 103 C-14 102.67 -14 102.34 -14 102 C-9.71 102 -5.42 102 -1 102 C-1 71.64 -1 41.28 -1 10 C-1.66 10 -2.32 10 -3 10 C-2.25 2.25 -2.25 2.25 0 0 Z " fill="#AFBABF" transform="translate(324,148)"/>
<path d="M0 0 C0.804375 -0.00128906 1.60875 -0.00257812 2.4375 -0.00390625 C3.283125 -0.00003906 4.12875 0.00382812 5 0.0078125 C6.2684375 0.00201172 6.2684375 0.00201172 7.5625 -0.00390625 C8.366875 -0.00261719 9.17125 -0.00132813 10 0 C10.7425 0.00112793 11.485 0.00225586 12.25 0.00341797 C14 0.1328125 14 0.1328125 15 1.1328125 C15.07205511 2.81890216 15.08386068 4.50781909 15.0625 6.1953125 C15.05347656 7.11441406 15.04445313 8.03351563 15.03515625 8.98046875 C15.02355469 9.69074219 15.01195312 10.40101562 15 11.1328125 C14.67 10.1428125 14.34 9.1528125 14 8.1328125 C13.38253906 8.14441406 12.76507813 8.15601562 12.12890625 8.16796875 C6.32474456 8.22980913 0.75661912 7.87560206 -5 7.1328125 C-5.04254356 5.13326504 -5.04080783 3.13239614 -5 1.1328125 C-3.4779041 -0.3892834 -2.11789918 0.00321729 0 0 Z " fill="#E7E7E7" transform="translate(296,71.8671875)"/>
<path d="M0 0 C1.134375 0.020625 2.26875 0.04125 3.4375 0.0625 C3.4375 1.3825 3.4375 2.7025 3.4375 4.0625 C1.4575 3.4025 -0.5225 2.7425 -2.5625 2.0625 C-1.18558038 4.81633923 0.80470042 5.57733101 3.4375 7.0625 C3.1075 8.7125 2.7775 10.3625 2.4375 12.0625 C0.1275 12.0625 -2.1825 12.0625 -4.5625 12.0625 C-4.8925 12.7225 -5.2225 13.3825 -5.5625 14.0625 C-5.8925 12.7425 -6.2225 11.4225 -6.5625 10.0625 C-8.5425 10.0625 -10.5225 10.0625 -12.5625 10.0625 C-12.5625 9.0725 -12.5625 8.0825 -12.5625 7.0625 C-11.2425 7.0625 -9.9225 7.0625 -8.5625 7.0625 C-8.5625 6.4025 -8.5625 5.7425 -8.5625 5.0625 C-9.8825 5.0625 -11.2025 5.0625 -12.5625 5.0625 C-12.5625 4.0725 -12.5625 3.0825 -12.5625 2.0625 C-10.51171875 1.83463542 -8.4609375 1.60677083 -6.41015625 1.37890625 C-3.20046765 0.82925556 -4.00105232 0.0701939 0 0 Z " fill="#0D0C05" transform="translate(356.5625,260.9375)"/>
<path d="M0 0 C0.70189453 0.01353516 1.40378906 0.02707031 2.12695312 0.04101562 C3.85579829 0.07629818 5.58424765 0.13010417 7.3125 0.1875 C6.3225 1.6725 6.3225 1.6725 5.3125 3.1875 C2.74609375 3.6640625 2.74609375 3.6640625 -0.25 3.8125 C-3.7811834 3.7073555 -3.7811834 3.7073555 -6.6875 5.1875 C-7.26823035 12.06692111 -6.78709663 17.85325632 -4.2890625 24.2734375 C-3.48746865 26.82396338 -3.80254499 28.69353587 -4.6875 31.1875 C-10.11950016 25.03123316 -11.03417077 19.42078377 -11 11.5 C-11.01611328 10.74138672 -11.03222656 9.98277344 -11.04882812 9.20117188 C-11.05141983 6.26476649 -11.01479079 3.81993408 -9.6484375 1.1796875 C-6.53840848 -0.39391284 -3.39555672 -0.12364772 0 0 Z " fill="#080808" transform="translate(297.6875,68.8125)"/>
<path d="M0 0 C0.268125 0.598125 0.53625 1.19625 0.8125 1.8125 C1.84461441 4.03207692 1.84461441 4.03207692 3.5625 5.3125 C5.79851672 7.93738919 5.66245871 10.62458711 6 14 C6.48551348 18.65368332 6.48551348 18.65368332 8 23 C8.07033769 24.87379605 8.0843022 26.75001102 8.0625 28.625 C8.05347656 29.62789062 8.04445313 30.63078125 8.03515625 31.6640625 C8.02355469 32.43492188 8.01195312 33.20578125 8 34 C6.68 34 5.36 34 4 34 C3.86722656 33.04738281 3.73445313 32.09476563 3.59765625 31.11328125 C3.42105469 29.85902344 3.24445313 28.60476562 3.0625 27.3125 C2.88847656 26.07113281 2.71445312 24.82976562 2.53515625 23.55078125 C2.21523328 21.42808065 1.85808344 19.30972556 1.42578125 17.20703125 C1 15 1 15 1.125 12.375 C1.26697094 9.91401131 1.26697094 9.91401131 -0.5625 8.5 C-1.036875 8.005 -1.51125 7.51 -2 7 C-1.73904456 4.32520673 -1.1995243 2.39904859 0 0 Z " fill="#1E1E1E" transform="translate(318,61)"/>
<path d="M0 0 C1.32 0 2.64 0 4 0 C8.07877462 8.03501094 8.07877462 8.03501094 7.75 12.0625 C7.5025 12.701875 7.255 13.34125 7 14 C6.113125 13.835 5.22625 13.67 4.3125 13.5 C1.46403108 13.07004243 -1.13004802 12.91558965 -4 13 C-3.27991594 8.39146203 -1.68704061 4.32762591 0 0 Z " fill="#DCDCDC" transform="translate(284,89)"/>
<path d="M0 0 C0.33 0.66 0.66 1.32 1 2 C0.09373216 3.2989839 -0.82549537 4.58893167 -1.75 5.875 C-2.26046875 6.59429687 -2.7709375 7.31359375 -3.296875 8.0546875 C-5.1239331 10.14155661 -6.40426399 11.06196156 -9 12 C-13.95360575 11.92137134 -16.02202056 11.76989871 -19.9375 8.6875 C-21.78261037 6.28326527 -22.67099252 4.9610673 -23 2 C-21.1875 2.25 -21.1875 2.25 -19 3 C-18.566875 3.680625 -18.13375 4.36125 -17.6875 5.0625 C-16.06797001 7.31013389 -16.06797001 7.31013389 -12.875 7.6875 C-7.36318833 6.70959793 -4.1105452 3.65381795 0 0 Z " fill="#0C0C0C" transform="translate(313,135)"/>
<path d="M0 0 C5.28 0 10.56 0 16 0 C16.33 1.65 16.66 3.3 17 5 C11.06 5 5.12 5 -1 5 C-0.67 3.35 -0.34 1.7 0 0 Z " fill="#E6E6E6" transform="translate(293,49)"/>
<path d="M0 0 C1.32 0.66 2.64 1.32 4 2 C3.5 4.375 3.5 4.375 2 7 C-4.49152469 9.27203364 -10.27407211 9.58257127 -17 8 C-16.34 6.02 -15.68 4.04 -15 2 C-14.01 2.66 -13.02 3.32 -12 4 C-10.04620501 4.27785432 -10.04620501 4.27785432 -8 4.1875 C-6.9790625 4.17783203 -6.9790625 4.17783203 -5.9375 4.16796875 C-3.78241791 4.05697746 -3.78241791 4.05697746 -1 3 C-0.67 2.01 -0.34 1.02 0 0 Z " fill="#3C3C3C" transform="translate(309,94)"/>
<path d="M0 0 C1.05960937 0.00676758 1.05960937 0.00676758 2.140625 0.01367188 C3.88545275 0.02546125 5.630237 0.04339676 7.375 0.0625 C7.375 1.0525 7.375 2.0425 7.375 3.0625 C5.375 5.0625 5.375 5.0625 2.5546875 5.2578125 C1.46414063 5.23460937 0.37359375 5.21140625 -0.75 5.1875 C-1.84570312 5.16945313 -2.94140625 5.15140625 -4.0703125 5.1328125 C-4.91335937 5.10960937 -5.75640625 5.08640625 -6.625 5.0625 C-7.285 6.3825 -7.945 7.7025 -8.625 9.0625 C-8.955 8.4025 -9.285 7.7425 -9.625 7.0625 C-9.295 6.4025 -8.965 5.7425 -8.625 5.0625 C-9.285 4.7325 -9.945 4.4025 -10.625 4.0625 C-10.295 3.0725 -9.965 2.0825 -9.625 1.0625 C-6.55966836 -0.47016582 -3.35745728 -0.04026471 0 0 Z " fill="#020104" transform="translate(260.625,254.9375)"/>
<path d="M0 0 C1.32 0 2.64 0 4 0 C4.30855036 4.47398024 4.27160759 7.27571308 2.6875 11.5 C-0.51253624 14.47677789 -1.51238805 14.36409238 -5.75 14.375 C-7.50181351 14.27869612 -9.25309636 14.16264275 -11 14 C-10.2265625 12.046875 -10.2265625 12.046875 -9 10 C-5.375 9.25 -5.375 9.25 -2 9 C-1.34 6.03 -0.68 3.06 0 0 Z " fill="#181818" transform="translate(326,119)"/>
<path d="M0 0 C4.56454251 0.54339792 7.9728176 1.79463821 12 4 C12 5.32 12 6.64 12 8 C5.565 8.495 5.565 8.495 -1 9 C-0.67 6.03 -0.34 3.06 0 0 Z " fill="#E1E1E0" transform="translate(260,149)"/>
<path d="M0 0 C4.47152289 1.80580732 5.83952485 4.4667855 8.02734375 8.6015625 C9.39693004 11.97877528 9.38258506 14.40370042 9 18 C8.01 18 7.02 18 6 18 C5.01 14.37 4.02 10.74 3 7 C1.35 6.67 -0.3 6.34 -2 6 C-1.34 4.02 -0.68 2.04 0 0 Z " fill="#0E0E0E" transform="translate(276,141)"/>
<path d="M0 0 C0.33 2.64 0.66 5.28 1 8 C-2.96 8 -6.92 8 -11 8 C-10.67 6.35 -10.34 4.7 -10 3 C-8.22265625 1.85546875 -8.22265625 1.85546875 -6.0625 1.1875 C-5.35222656 0.95417969 -4.64195312 0.72085938 -3.91015625 0.48046875 C-2 0 -2 0 0 0 Z " fill="#EDEDED" transform="translate(342,149)"/>
<path d="M0 0 C1.32 0 2.64 0 4 0 C4.07476562 0.61488281 4.14953125 1.22976562 4.2265625 1.86328125 C4.6349008 4.37336078 5.09032069 6.6221406 6 9 C8.93449408 11.01041003 8.93449408 11.01041003 12 12 C12.33 12.66 12.66 13.32 13 14 C7.75444371 14.43712969 7.75444371 14.43712969 5 14 C1.52769332 10.61672682 0.02090661 8.21258356 -0.0625 3.375 C-0.041875 2.26125 -0.02125 1.1475 0 0 Z " fill="#161616" transform="translate(274,119)"/>
<path d="M0 0 C2.31 0 4.62 0 7 0 C7 1.32 7 2.64 7 4 C6.34 4 5.68 4 5 4 C5 3.34 5 2.68 5 2 C4.01 2 3.02 2 2 2 C3.37691962 4.75383923 5.36720042 5.51483101 8 7 C7.125 10.875 7.125 10.875 6 12 C3.66702567 12.04092937 1.33294775 12.04241723 -1 12 C-1 10.68 -1 9.36 -1 8 C0.98 8.66 2.96 9.32 5 10 C3.06745228 7.9754262 1.36841312 6.57894208 -1 5 C-0.67 3.35 -0.34 1.7 0 0 Z " fill="#C9B61F" transform="translate(332,261)"/>
<path d="M0 0 C1.32 0 2.64 0 4 0 C3.25 6.625 3.25 6.625 1 10 C1.3121764 12.64632287 1.3121764 12.64632287 2 15 C4.64 15.33 7.28 15.66 10 16 C9.67 18.31 9.34 20.62 9 23 C8.7525 22.071875 8.7525 22.071875 8.5 21.125 C6.40148748 18.15210727 4.24008577 18.06453739 0.77734375 17.39453125 C-1 17 -1 17 -2 16 C-2.27395869 11.89061969 -1.80360751 9.60721503 0 6 C0.16724737 2.83304044 0.16724737 2.83304044 0 0 Z " fill="#C9C9C9" transform="translate(276,89)"/>
<path d="M0 0 C2.31 0 4.62 0 7 0 C7 1.32 7 2.64 7 4 C5.02 3.34 3.04 2.68 1 2 C1 2.66 1 3.32 1 4 C1.804375 4.226875 2.60875 4.45375 3.4375 4.6875 C6 6 6 6 6.875 8.5625 C6.936875 9.7690625 6.936875 9.7690625 7 11 C6 12 6 12 4.15234375 12.09765625 C2.1015625 12.06510417 0.05078125 12.03255208 -2 12 C-2 10.68 -2 9.36 -2 8 C0.38564077 8.57584432 2.66682784 9.22227595 5 10 C3.62308038 7.24616077 1.63279958 6.48516899 -1 5 C-0.67 3.35 -0.34 1.7 0 0 Z " fill="#E0CB20" transform="translate(219,261)"/>
<path d="M0 0 C0.99 0.33 1.98 0.66 3 1 C2.43693108 4.26579973 1.64391209 5.96210821 -1 8 C-3.15625 8.0390625 -3.15625 8.0390625 -5.5 7.625 C-8.67194323 7.08576965 -9.85233559 6.95077853 -13 8 C-13.5625 6.0625 -13.5625 6.0625 -14 4 C-13 3 -13 3 -10.27734375 2.90234375 C-8.62412109 2.91974609 -8.62412109 2.91974609 -6.9375 2.9375 C-5.28041016 2.95103516 -5.28041016 2.95103516 -3.58984375 2.96484375 C-2.73519531 2.97644531 -1.88054687 2.98804688 -1 3 C-0.67 2.01 -0.34 1.02 0 0 Z " fill="#111111" transform="translate(308,34)"/>
<path d="M0 0 C0.99 0 1.98 0 3 0 C3.50833591 1.24663331 4.00631145 2.49749387 4.5 3.75 C4.7784375 4.44609375 5.056875 5.1421875 5.34375 5.859375 C6 8 6 8 6 12 C5.01 11.67 4.02 11.34 3 11 C3 10.34 3 9.68 3 9 C1.68 9 0.36 9 -1 9 C-1 9.99 -1 10.98 -1 12 C-1.66 12 -2.32 12 -3 12 C-2.14285714 3.42857143 -2.14285714 3.42857143 0 0 Z " fill="#B4A61D" transform="translate(241,261)"/>
<path d="M0 0 C1.32 0.33 2.64 0.66 4 1 C4.99 4.63 5.98 8.26 7 12 C6.01 12 5.02 12 4 12 C4 11.01 4 10.02 4 9 C2.68 9 1.36 9 0 9 C-0.33 9.99 -0.66 10.98 -1 12 C-1.66 12 -2.32 12 -3 12 C-2.69106068 10.3743193 -2.3777305 8.74947252 -2.0625 7.125 C-1.88847656 6.22007812 -1.71445312 5.31515625 -1.53515625 4.3828125 C-1 2 -1 2 0 0 Z " fill="#C2B01D" transform="translate(313,261)"/>
<path d="M0 0 C1.9453125 -0.29296875 1.9453125 -0.29296875 4.125 -0.1875 C5.40375 -0.125625 6.6825 -0.06375 8 0 C8 1.65 8 3.3 8 5 C7.01 5 6.02 5 5 5 C5 4.01 5 3.02 5 2 C3.68 2 2.36 2 1 2 C1.33 4.31 1.66 6.62 2 9 C2.99 9.33 3.98 9.66 5 10 C5 9.34 5 8.68 5 8 C5.66 8 6.32 8 7 8 C6.67 9.32 6.34 10.64 6 12 C3.6568787 11.74438677 1.32156597 11.40729228 -1 11 C-2.38550197 8.22899606 -2.1877467 6.0665294 -2 3 C-1.34 2.01 -0.68 1.02 0 0 Z " fill="#C1AF21" transform="translate(291,261)"/>
<path d="M0 0 C0.125 6.625 0.125 6.625 -1 10 C-5.49652778 10.36458333 -5.49652778 10.36458333 -7.8125 8.6875 C-9 7 -9 7 -9 4 C-3.85714286 0 -3.85714286 0 0 0 Z " fill="#E0E0E0" transform="translate(314,119)"/>
<path d="M0 0 C0.268125 0.598125 0.53625 1.19625 0.8125 1.8125 C1.84461441 4.03207692 1.84461441 4.03207692 3.5625 5.3125 C5.89199538 8.04712501 5.93838232 10.48779204 6 14 C4.0625 16.4375 4.0625 16.4375 2 18 C1 15 1 15 1.125 12.5 C1.28292635 9.92837156 1.28292635 9.92837156 -0.5625 8.5 C-1.036875 8.005 -1.51125 7.51 -2 7 C-1.73904456 4.32520673 -1.1995243 2.39904859 0 0 Z " fill="#141414" transform="translate(318,61)"/>
<path d="M0 0 C2.31 0 4.62 0 7 0 C7 1.32 7 2.64 7 4 C5.02 3.34 3.04 2.68 1 2 C2.37691962 4.75383923 4.36720042 5.51483101 7 7 C6.67 8.65 6.34 10.3 6 12 C3.69 12 1.38 12 -1 12 C-1 10.68 -1 9.36 -1 8 C-0.34 8 0.32 8 1 8 C1 8.66 1 9.32 1 10 C2.32 10 3.64 10 5 10 C3.62308038 7.24616077 1.63279958 6.48516899 -1 5 C-0.67 3.35 -0.34 1.7 0 0 Z " fill="#DBC620" transform="translate(353,261)"/>
<path d="M0 0 C2.31 0 4.62 0 7 0 C7 1.32 7 2.64 7 4 C6.34 4 5.68 4 5 4 C5 3.34 5 2.68 5 2 C3.68 2 2.36 2 1 2 C2.37691962 4.75383923 4.36720042 5.51483101 7 7 C6.67 8.65 6.34 10.3 6 12 C3.69 12 1.38 12 -1 12 C-1 10.68 -1 9.36 -1 8 C0.98 8.66 2.96 9.32 5 10 C3.62308038 7.24616077 1.63279958 6.48516899 -1 5 C-0.67 3.35 -0.34 1.7 0 0 Z " fill="#D9C21C" transform="translate(322,261)"/>
<path d="M0 0 C0.99 0.33 1.98 0.66 3 1 C3.3125 3.3125 3.3125 3.3125 3 6 C1.36935236 7.05771739 -0.30280873 8.05273046 -2 9 C-3.80796103 11.56610666 -3.80796103 11.56610666 -5 14 C-5.66 13.01 -6.32 12.02 -7 11 C-5.45511391 6.27951472 -3.81638116 3.28998376 0 0 Z " fill="#0B0B0B" transform="translate(325,141)"/>
<path d="M0 0 C0.66 0 1.32 0 2 0 C2 1.65 2 3.3 2 5 C3.32 5 4.64 5 6 5 C6 3.35 6 1.7 6 0 C6.66 0 7.32 0 8 0 C8 3.96 8 7.92 8 12 C7.34 12 6.68 12 6 12 C6 10.35 6 8.7 6 7 C4.68 7 3.36 7 2 7 C2 8.65 2 10.3 2 12 C1.34 12 0.68 12 0 12 C0 8.04 0 4.08 0 0 Z " fill="#E3CC25" transform="translate(228,261)"/>
<path d="M0 0 C2.64 0 5.28 0 8 0 C8 0.66 8 1.32 8 2 C6.02 2 4.04 2 2 2 C2 2.99 2 3.98 2 5 C3.32 5 4.64 5 6 5 C6 5.66 6 6.32 6 7 C4.68 7 3.36 7 2 7 C2 7.99 2 8.98 2 10 C3.98 10 5.96 10 8 10 C8 10.66 8 11.32 8 12 C5.36 12 2.72 12 0 12 C0 8.04 0 4.08 0 0 Z " fill="#DBC72A" transform="translate(342,261)"/>
<path d="M0 0 C0.66 0 1.32 0 2 0 C2.33 0.66 2.66 1.32 3 2 C4.32 1.34 5.64 0.68 7 0 C6.608125 0.86625 6.21625 1.7325 5.8125 2.625 C4.63954497 6.05470991 4.63954497 6.05470991 6.375 9.375 C6.91125 10.24125 7.4475 11.1075 8 12 C7.01 12 6.02 12 5 12 C4.34 10.68 3.68 9.36 3 8 C2.67 9.32 2.34 10.64 2 12 C1.34 12 0.68 12 0 12 C0 8.04 0 4.08 0 0 Z " fill="#E0CA1F" transform="translate(249,261)"/>
<path d="M0 0 C2.64 0.33 5.28 0.66 8 1 C7.896875 1.763125 7.79375 2.52625 7.6875 3.3125 C7.790625 4.199375 7.89375 5.08625 8 6 C10.44496043 7.71711243 10.44496043 7.71711243 13 9 C13 9.66 13 10.32 13 11 C10.83125748 10.49396008 9.00032373 10.00016187 7 9 C7 9.99 7 10.98 7 12 C6.34 12 5.68 12 5 12 C4.80664062 11.30132812 4.61328125 10.60265625 4.4140625 9.8828125 C4.15367187 8.97273438 3.89328125 8.06265625 3.625 7.125 C3.36976563 6.22007812 3.11453125 5.31515625 2.8515625 4.3828125 C2.1395685 1.85430274 2.1395685 1.85430274 0 0 Z " fill="#101007" transform="translate(314,260)"/>
<path d="M0 0 C2.97 0 5.94 0 9 0 C8.67 1.32 8.34 2.64 8 4 C8 3.34 8 2.68 8 2 C7.34 2 6.68 2 6 2 C6 4.64 6 7.28 6 10 C6.66 10 7.32 10 8 10 C8 10.66 8 11.32 8 12 C6.02 12 4.04 12 2 12 C2 11.34 2 10.68 2 10 C2.66 10 3.32 10 4 10 C3.67 8.02 3.34 6.04 3 4 C2.01 4 1.02 4 0 4 C0 2.68 0 1.36 0 0 Z " fill="#D5C21F" transform="translate(258,261)"/>
<path d="M0 0 C0.99 0.66 1.98 1.32 3 2 C3 2.99 3 3.98 3 5 C-0.96 5 -4.92 5 -9 5 C-8.67 3.68 -8.34 2.36 -8 1 C-5.22899606 -0.38550197 -3.0665294 -0.1877467 0 0 Z " fill="#E9E9E9" transform="translate(304,40)"/>
<path d="M0 0 C0.66 0 1.32 0 2 0 C2 0.66 2 1.32 2 2 C4.97 2.33 7.94 2.66 11 3 C11 3.66 11 4.32 11 5 C8.52653696 7.47346304 7.29238832 7.98313144 3.75 8.1875 C2.8425 8.125625 1.935 8.06375 1 8 C0.67 5.36 0.34 2.72 0 0 Z " fill="#D8D8D8" transform="translate(288,121)"/>
<path d="M0 0 C1.12588014 0.95729916 2.2506715 1.91587895 3.375 2.875 C4.00148438 3.40867187 4.62796875 3.94234375 5.2734375 4.4921875 C6.55836651 5.61432007 7.79371975 6.79371975 9 8 C11.65537372 8.56520003 14.29144713 8.73788198 17 9 C17 9.33 17 9.66 17 10 C14.69 10 12.38 10 10 10 C10 10.66 10 11.32 10 12 C5.74545047 11.52727227 3.80795427 9.03562624 1 6 C0.67 5.67 0.34 5.34 0 5 C-0.04063832 3.33382885 -0.042721 1.66611905 0 0 Z " fill="#D3D3D3" transform="translate(285,108)"/>
<path d="M0 0 C1.98 0 3.96 0 6 0 C6 3.96 6 7.92 6 12 C4.02 12 2.04 12 0 12 C0 11.34 0 10.68 0 10 C0.66 10 1.32 10 2 10 C2 7.36 2 4.72 2 2 C1.34 2 0.68 2 0 2 C0 1.34 0 0.68 0 0 Z " fill="#B19E17" transform="translate(270,261)"/>
<path d="M0 0 C0.99 0 1.98 0 3 0 C3 3.3 3 6.6 3 10 C4.65 10 6.3 10 8 10 C8 10.66 8 11.32 8 12 C5.36 12 2.72 12 0 12 C0 8.04 0 4.08 0 0 Z " fill="#C4B01C" transform="translate(300,261)"/>
<path d="M0 0 C1.32 0 2.64 0 4 0 C4 0.66 4 1.32 4 2 C4.721875 2.103125 5.44375 2.20625 6.1875 2.3125 C9.27793421 3.06793947 11.41743841 4.15531315 14 6 C14 6.66 14 7.32 14 8 C13.05125 7.814375 12.1025 7.62875 11.125 7.4375 C8.10131207 6.71313368 8.10131207 6.71313368 6 8 C5.7525 7.38125 5.505 6.7625 5.25 6.125 C3.79371361 3.64931313 2.62187494 3.04874998 0 2 C0 1.34 0 0.68 0 0 Z " fill="#191307" transform="translate(323,263)"/>
<path d="M0 0 C1.32 0 2.64 0 4 0 C4 0.99 4 1.98 4 3 C4.99 3.33 5.98 3.66 7 4 C6.67 5.32 6.34 6.64 6 8 C6 7.34 6 6.68 6 6 C5.34 6 4.68 6 4 6 C4 6.66 4 7.32 4 8 C2.68 7.67 1.36 7.34 0 7 C0 4.69 0 2.38 0 0 Z " fill="#0E0B05" transform="translate(292,263)"/>
<path d="M0 0 C1.35158203 0.15275391 1.35158203 0.15275391 2.73046875 0.30859375 C3.41753906 0.39238281 4.10460937 0.47617187 4.8125 0.5625 C4.8125 0.8925 4.8125 1.2225 4.8125 1.5625 C1.8425 1.5625 -1.1275 1.5625 -4.1875 1.5625 C-4.1875 2.8825 -4.1875 4.2025 -4.1875 5.5625 C-3.1975 5.5625 -2.2075 5.5625 -1.1875 5.5625 C-0.8575 4.9025 -0.5275 4.2425 -0.1875 3.5625 C-0.1875 5.8725 -0.1875 8.1825 -0.1875 10.5625 C-0.5175 9.2425 -0.8475 7.9225 -1.1875 6.5625 C-3.4975 6.2325 -5.8075 5.9025 -8.1875 5.5625 C-7.5275 4.2425 -6.8675 2.9225 -6.1875 1.5625 C-6.8475 1.2325 -7.5075 0.9025 -8.1875 0.5625 C-4.98734144 -0.50421952 -3.30205706 -0.38595472 0 0 Z " fill="#27250C" transform="translate(262.1875,259.4375)"/>
<path d="M0 0 C0.33 0 0.66 0 1 0 C0.979375 1.2375 0.95875 2.475 0.9375 3.75 C0.93233319 6.6640825 1.06984442 9.20953327 2 12 C1.01 12.495 1.01 12.495 0 13 C-0.68472665 14.88764903 -0.68472665 14.88764903 -1.125 17.0625 C-1.29257812 17.79597656 -1.46015625 18.52945313 -1.6328125 19.28515625 C-1.75398438 19.85105469 -1.87515625 20.41695312 -2 21 C-2.33 21 -2.66 21 -3 21 C-2.53752467 13.80729161 -1.74922933 6.9969173 0 0 Z " fill="#C3D0D8" transform="translate(371,160)"/>
<path d="M0 0 C0.33 0 0.66 0 1 0 C1 3.96 1 7.92 1 12 C-1 10 -1 10 -1.875 8 C-3.2363704 5.57978596 -4.46546555 5.01381378 -7 4 C-7 3.34 -7 2.68 -7 2 C-6.01 2 -5.02 2 -4 2 C-4 2.66 -4 3.32 -4 4 C-3.01 4 -2.02 4 -1 4 C-0.67 2.68 -0.34 1.36 0 0 Z " fill="#202A08" transform="translate(341,261)"/>
<path d="M0 0 C0.99 0 1.98 0 3 0 C3.50833591 1.24663331 4.00631145 2.49749387 4.5 3.75 C4.7784375 4.44609375 5.056875 5.1421875 5.34375 5.859375 C6 8 6 8 6 12 C5.01 11.67 4.02 11.34 3 11 C2.67 8.36 2.34 5.72 2 3 C1.34 3 0.68 3 0 3 C0 2.01 0 1.02 0 0 Z " fill="#D1BA19" transform="translate(241,261)"/>
<path d="M0 0 C0.99 1.485 0.99 1.485 2 3 C2.66 3.66 3.32 4.32 4 5 C4.1953125 7.1640625 4.1953125 7.1640625 4.125 9.625 C4.10695313 10.44226563 4.08890625 11.25953125 4.0703125 12.1015625 C4.03550781 13.04128906 4.03550781 13.04128906 4 14 C3.34 14 2.68 14 2 14 C-0.29612756 4.58997722 -0.29612756 4.58997722 0 0 Z " fill="#ABB2B5" transform="translate(348,198)"/>
<path d="M0 0 C0.33 0 0.66 0 1 0 C1.33848652 1.89492006 1.67056911 3.79098466 2 5.6875 C2.185625 6.74324219 2.37125 7.79898438 2.5625 8.88671875 C2.95068074 11.64904062 3.08259976 14.21742043 3 17 C2.67 16.34 2.34 15.68 2 15 C1.34 15 0.68 15 0 15 C0 10.05 0 5.1 0 0 Z " fill="#C7C2AE" transform="translate(341,233)"/>
<path d="M0 0 C0.66 0 1.32 0 2 0 C2 2.97 2 5.94 2 9 C0.68 9 -0.64 9 -2 9 C-1.125 1.125 -1.125 1.125 0 0 Z " fill="#EAEAE9" transform="translate(324,148)"/>
<path d="M0 0 C0.5625 1.9375 0.5625 1.9375 1 4 C0 5 0 5 -1.84765625 5.09765625 C-3.8984375 5.06510417 -5.94921875 5.03255208 -8 5 C-8 3.68 -8 2.36 -8 1 C-5.69 1.33 -3.38 1.66 -1 2 C-0.67 1.34 -0.34 0.68 0 0 Z " fill="#C0AF23" transform="translate(225,268)"/>
<path d="M0 0 C1.98 0 3.96 0 6 0 C6 1.32 6 2.64 6 4 C4.02 4 2.04 4 0 4 C0 2.68 0 1.36 0 0 Z " fill="#202020" transform="translate(298,89)"/>
<path d="M0 0 C0.99 0.33 1.98 0.66 3 1 C3 2.65 3 4.3 3 6 C1.68 6.33 0.36 6.66 -1 7 C-0.34 6.67 0.32 6.34 1 6 C1 5.34 1 4.68 1 4 C-0.65 4.66 -2.3 5.32 -4 6 C-2.84826645 3.53199953 -1.95216435 1.95216435 0 0 Z " fill="#1C1C1C" transform="translate(325,141)"/>
<path d="M0 0 C0.99 0 1.98 0 3 0 C3 0.66 3 1.32 3 2 C3.66 2 4.32 2 5 2 C4.625 4.9375 4.625 4.9375 4 8 C3.01 8.495 3.01 8.495 2 9 C1.34 6.03 0.68 3.06 0 0 Z " fill="#EFF2ED" transform="translate(348,195)"/>
<path d="M0 0 C0.99 0.66 1.98 1.32 3 2 C4.65549531 2.38499891 6.3222433 2.72793135 8 3 C7.67 3.66 7.34 4.32 7 5 C4.93359375 5.4140625 4.93359375 5.4140625 2.4375 5.625 C1.61121094 5.69976562 0.78492188 5.77453125 -0.06640625 5.8515625 C-1.02353516 5.92503906 -1.02353516 5.92503906 -2 6 C-1.34 4.02 -0.68 2.04 0 0 Z " fill="#4F4F4F" transform="translate(294,96)"/>
<path d="M0 0 C0.66 0 1.32 0 2 0 C3.61949011 2.57213134 4.04408751 3.67669159 3.625 6.75 C3.41875 7.4925 3.2125 8.235 3 9 C0.9375 6.75 0.9375 6.75 -1 4 C-0.75 1.6875 -0.75 1.6875 0 0 Z " fill="#030303" transform="translate(290,91)"/>
<path d="M0 0 C0 0.66 0 1.32 0 2 C-2.40545638 3.20272819 -3.94996953 3.10071472 -6.625 3.0625 C-7.85089844 3.04896484 -7.85089844 3.04896484 -9.1015625 3.03515625 C-10.04128906 3.01775391 -10.04128906 3.01775391 -11 3 C-11 2.34 -11 1.68 -11 1 C-7.26513121 0.4254048 -3.78706732 0 0 0 Z " fill="#F1F1F1" transform="translate(306,117)"/>
<path d="M0 0 C2 2 2 2 2.125 4.625 C2.08375 5.40875 2.0425 6.1925 2 7 C1.01 7.33 0.02 7.66 -1 8 C-1.33 5.69 -1.66 3.38 -2 1 C-1.34 0.67 -0.68 0.34 0 0 Z " fill="#1C1C1C" transform="translate(289,84)"/>
<path d="M0 0 C1.32 0 2.64 0 4 0 C4 1.98 4 3.96 4 6 C3.01 6.495 3.01 6.495 2 7 C2 6.34 2 5.68 2 5 C1.34 5 0.68 5 0 5 C0 3.35 0 1.7 0 0 Z " fill="#231A08" transform="translate(230,268)"/>
<path d="M0 0 C0 0.33 0 0.66 0 1 C-1.0725 1.268125 -2.145 1.53625 -3.25 1.8125 C-6.56508928 2.86227827 -8.43877646 3.74612328 -11 6 C-11 5.34 -11 4.68 -11 4 C-11.66 3.67 -12.32 3.34 -13 3 C-8.1942374 -0.17180332 -5.81427302 -1.70173845 0 0 Z " fill="#BCBCBC" transform="translate(317,113)"/>
<path d="M0 0 C1.670625 0.061875 1.670625 0.061875 3.375 0.125 C3.045 2.435 2.715 4.745 2.375 7.125 C2.065625 6.1659375 2.065625 6.1659375 1.75 5.1875 C0.47961791 2.77574923 0.47961791 2.77574923 -2.75 2.375 C-3.69875 2.2925 -4.6475 2.21 -5.625 2.125 C-3.625 0.125 -3.625 0.125 0 0 Z " fill="#AEAEAE" transform="translate(282.625,104.875)"/>
<path d="M0 0 C2.64 0 5.28 0 8 0 C7.67 0.99 7.34 1.98 7 3 C5.02 3 3.04 3 1 3 C0.67 2.01 0.34 1.02 0 0 Z " fill="#0C0C0C" transform="translate(302,80)"/>
<path d="M0 0 C0.33 0 0.66 0 1 0 C1 2.97 1 5.94 1 9 C1.66 9 2.32 9 3 9 C3 9.66 3 10.32 3 11 C1.02 11 -0.96 11 -3 11 C-3 10.34 -3 9.68 -3 9 C-2.01 9 -1.02 9 0 9 C0 6.03 0 3.06 0 0 Z " fill="#E4CF2A" transform="translate(273,262)"/>
<path d="M0 0 C2.64 0 5.28 0 8 0 C8 0.66 8 1.32 8 2 C6.02 2 4.04 2 2 2 C1.67 2.99 1.34 3.98 1 5 C0.67 3.35 0.34 1.7 0 0 Z " fill="#CEBE2B" transform="translate(342,261)"/>
<path d="M0 0 C2.31 0 4.62 0 7 0 C7 0.99 7 1.98 7 3 C4.69 3 2.38 3 0 3 C0 2.01 0 1.02 0 0 Z " fill="#060606" transform="translate(293,80)"/>
<path d="M0 0 C0.33 0 0.66 0 1 0 C1 2.64 1 5.28 1 8 C1.99 8 2.98 8 4 8 C4 8.66 4 9.32 4 10 C2.02 10 0.04 10 -2 10 C-2 9.34 -2 8.68 -2 8 C-1.34 8 -0.68 8 0 8 C0 5.36 0 2.72 0 0 Z " fill="#D2CC2A" transform="translate(262,263)"/>
<path d="M0 0 C2.31 0 4.62 0 7 0 C7 1.32 7 2.64 7 4 C6.34 4 5.68 4 5 4 C5 3.34 5 2.68 5 2 C3.68 2 2.36 2 1 2 C0.67 2.66 0.34 3.32 0 4 C0 2.68 0 1.36 0 0 Z " fill="#D9C31F" transform="translate(332,261)"/>
<path d="M0 0 C0.33 0 0.66 0 1 0 C1 2.64 1 5.28 1 8 C1.66 8 2.32 8 3 8 C3 9.98 3 11.96 3 14 C0.19954377 10.85408067 -0.35261589 8.932936 -0.1875 4.75 C-0.16042969 3.85796875 -0.13335937 2.9659375 -0.10546875 2.046875 C-0.07066406 1.37140625 -0.03585938 0.6959375 0 0 Z " fill="#A0B2BD" transform="translate(230,172)"/>
<path d="M0 0 C1.32 0.66 2.64 1.32 4 2 C2.68 3.65 1.36 5.3 0 7 C-0.66 6.67 -1.32 6.34 -2 6 C-1.34 4.02 -0.68 2.04 0 0 Z " fill="#272727" transform="translate(276,141)"/>
<path d="M0 0 C1.98 0 3.96 0 6 0 C6 0.66 6 1.32 6 2 C6.66 2 7.32 2 8 2 C6.60804085 4.7839183 4.84424221 4.97898997 2 6 C2.66 4.35 3.32 2.7 4 1 C2.68 0.67 1.36 0.34 0 0 Z " fill="#262626" transform="translate(307,132)"/>
<path d="M0 0 C2.02045442 0.60183749 4.02111039 1.27306096 6 2 C6.33 2.66 6.66 3.32 7 4 C4.69 4 2.38 4 0 4 C0 2.68 0 1.36 0 0 Z " fill="#D0BE29" transform="translate(321,269)"/>
<path d="M0 0 C0.33 0 0.66 0 1 0 C1 1.65 1 3.3 1 5 C0.01 5.495 0.01 5.495 -1 6 C-2.13350534 8.01669827 -2.13350534 8.01669827 -3 10 C-3 7.36 -3 4.72 -3 2 C-2.34 2 -1.68 2 -1 2 C-0.67 1.34 -0.34 0.68 0 0 Z " fill="#4D3610" transform="translate(267,261)"/>
<path d="M0 0 C2.31 0 4.62 0 7 0 C7 1.32 7 2.64 7 4 C4.97954558 3.39816251 2.97888961 2.72693904 1 2 C0.67 1.34 0.34 0.68 0 0 Z " fill="#CFBC24" transform="translate(353,261)"/>
<path d="M0 0 C0.66 0 1.32 0 2 0 C1.25 7.75 1.25 7.75 -1 10 C-1.125 3.375 -1.125 3.375 0 0 Z " fill="#020502" transform="translate(238,261)"/>
<path d="M0 0 C2.31 0 4.62 0 7 0 C7 1.32 7 2.64 7 4 C4.08482708 2.92598892 2.22189824 2.22189824 0 0 Z " fill="#CAB51F" transform="translate(219,261)"/>
<path d="M0 0 C0.99 0 1.98 0 3 0 C3.33 1.32 3.66 2.64 4 4 C2.68 4.33 1.36 4.66 0 5 C-0.33 4.01 -0.66 3.02 -1 2 C-0.67 1.34 -0.34 0.68 0 0 Z " fill="#272727" transform="translate(289,133)"/>
</svg>
